<svg width="936" height="936" viewBox="0 0 936 936" fill="none" xmlns="http://www.w3.org/2000/svg">
<path d="M923.017 468.001C922.881 558.347 895.954 646.968 845.666 722.033C796.854 794.896 726.75 852.462 646.28 887.118C562.492 923.203 467.668 932.454 378.301 914.752C291.444 897.548 210.879 854.401 147.795 792.377C84.724 730.364 40.885 650.299 22.169 563.898C2.797 474.471 11.5 379.861 45.946 295.189C78.916 214.143 136.315 143.449 208.081 93.579C282.041 42.185 370.5 14.061 460.488 12.578C550.872 11.088 640.323 37.037 716.092 86.248C789.631 134.011 848.184 203.225 883.997 283.177C909.953 341.123 922.922 404.581 923.017 468.001C923.029 475.739 935.029 475.74 935.017 468.001C934.881 377.445 908.495 288.122 858.936 212.292C810.865 138.739 741.91 79.428 662.05 42.821C578.498 4.52099 484.658 -7.75401 393.933 6.32499C305.922 19.982 223.017 59.959 156.513 119.016C90.482 177.652 42.033 255.185 17.792 340.05C-7.429 428.345 -5.571 524.001 22.47 611.381C49.416 695.35 100.752 770.802 168.432 827.242C237.228 884.612 321.671 920.899 410.496 931.984C501.271 943.313 594.557 927.029 676.394 886.326C755.044 847.208 821.682 785.283 867.365 710.355C911.698 637.641 934.887 553.079 935.015 468.001C935.028 460.262 923.028 460.263 923.017 468.001Z" fill="black"/>
<path d="M347.328 425C374.942 425 397.328 363.714 397.328 288.115C397.328 212.515 374.942 151.23 347.328 151.23C319.714 151.23 297.328 212.515 297.328 288.115C297.328 363.714 319.714 425 347.328 425Z" fill="black" stroke="black" stroke-miterlimit="10"/>
<path d="M598.148 425C625.762 425 648.148 363.714 648.148 288.115C648.148 212.515 625.762 151.23 598.148 151.23C570.534 151.23 548.148 212.515 548.148 288.115C548.148 363.714 570.534 425 598.148 425Z" fill="black" stroke="black" stroke-miterlimit="10"/>
<path d="M774.57 490.474C774.543 501.646 773.878 512.787 772.562 523.881C772.407 525.195 772.232 526.508 772.057 527.82C772.44 524.946 771.826 529.252 771.794 529.452C771.398 532.056 770.944 534.649 770.472 537.239C769.455 542.821 768.228 548.362 766.868 553.87C764.275 564.38 760.992 574.712 757.191 584.845C756.284 587.266 755.325 589.668 754.35 592.064C752.744 596.011 755.407 589.609 753.729 593.524C753.22 594.711 752.696 595.89 752.17 597.07C749.898 602.178 747.44 607.202 744.87 612.167C739.93 621.714 734.389 630.943 728.42 639.881C725.549 644.178 722.538 648.38 719.446 652.521C716.895 655.938 721.088 650.412 718.476 653.786C717.684 654.809 716.878 655.822 716.073 656.836C714.192 659.203 712.26 661.528 710.308 663.837C703.308 672.118 695.814 679.973 687.978 687.464C684.195 691.08 680.298 694.576 676.339 697.997C674.353 699.713 672.334 701.392 670.306 703.058C669.289 703.893 668.263 704.714 667.238 705.536C666.551 706.083 665.863 706.627 665.173 707.169C666.307 706.288 666.22 706.351 664.913 707.357C647.285 720.88 628.176 732.429 608.169 742.068C603.29 744.419 598.341 746.619 593.354 748.727C596.142 747.548 591.995 749.263 591.788 749.347C590.524 749.857 589.255 750.352 587.984 750.846C585.012 752.003 582.017 753.1 579.013 754.171C568.17 758.04 557.111 761.282 545.932 764.024C521.818 769.938 502.449 772.387 477.868 773.147C465.744 773.522 453.603 773.201 441.507 772.328C435.791 771.915 430.09 771.327 424.402 770.633C424.413 770.634 419.782 770.026 422.357 770.383C420.952 770.188 419.55 769.976 418.148 769.764C414.889 769.271 411.642 768.71 408.398 768.123C385.709 764.019 363.478 757.482 342.103 748.855C342.023 748.823 337.901 747.1 340.386 748.15C339.136 747.623 337.894 747.079 336.651 746.536C334.172 745.452 331.713 744.322 329.261 743.178C323.975 740.711 318.772 738.073 313.625 735.328C303.819 730.099 294.316 724.314 285.099 718.11C280.711 715.157 276.415 712.069 272.179 708.902C268.702 706.302 274.267 710.526 270.837 707.872C269.796 707.067 268.765 706.249 267.734 705.431C265.333 703.525 262.972 701.57 260.628 699.595C252.301 692.579 244.385 685.083 236.841 677.236C233.239 673.489 229.757 669.629 226.351 665.703C224.652 663.745 222.991 661.754 221.343 659.752C220.519 658.752 219.709 657.742 218.899 656.731C218.361 656.057 217.825 655.38 217.293 654.701C218.196 655.865 218.147 655.797 217.146 654.497C210.596 645.958 204.567 637.025 198.992 627.823C192.754 617.525 187.229 606.802 182.337 595.804C181.812 594.624 181.303 593.438 180.795 592.25C180.14 590.701 180.124 590.664 180.748 592.14C180.421 591.342 180.099 590.543 179.779 589.744C178.654 586.942 177.593 584.116 176.56 581.279C174.338 575.183 172.372 568.996 170.581 562.759C167.207 551.005 164.699 539.012 162.912 526.918C162.869 526.628 162.284 522.297 162.682 525.4C162.457 523.646 162.262 521.888 162.07 520.129C161.734 517.039 161.472 513.941 161.24 510.841C160.738 504.132 160.529 497.403 160.512 490.677C160.493 483.051 154.288 476.624 146.61 476.573C139.035 476.522 132.487 482.847 132.506 490.475C132.725 581.128 176.013 666.703 245.992 723.689C319.915 783.887 417.726 810.373 512.094 798.46C604.904 786.743 690.464 739.162 746.005 663.403C782.509 613.611 802.429 552.374 802.577 490.676C802.596 483.049 796.326 476.623 788.675 476.572C781.071 476.521 774.589 482.846 774.57 490.474Z" fill="black"/>
<path d="M121.554 508.793C116.557 512.856 121.69 508.874 123.277 507.938C124.858 507.004 126.5 506.179 128.159 505.396C131.451 503.84 126.717 505.916 129.011 505.005C130.21 504.529 131.43 504.111 132.652 503.701C135.445 502.764 138.31 502.06 141.192 501.458C141.616 501.369 146.206 500.621 144.036 500.899C145.824 500.67 147.622 500.545 149.42 500.432C157.519 499.928 165.484 500.811 173.366 502.632C180.006 504.166 186.868 500.634 188.725 493.874C190.475 487.505 186.599 480.047 179.967 478.515C154.76 472.691 124.68 474.211 103.779 491.206C98.491 495.507 99.425 504.493 103.874 508.887C109.106 514.055 116.267 513.092 121.554 508.793Z" fill="black"/>
<path d="M829.366 487.783C808.544 470.853 778.419 469.376 753.338 475.171C737.613 478.805 744.137 502.941 759.809 499.319C774.434 495.94 787.335 496.139 800.523 500.357C801.751 500.75 802.96 501.2 804.164 501.66C806.353 502.495 801.992 500.659 805.161 502.108C806.83 502.872 808.453 503.735 810.043 504.651C811.745 505.63 816.367 509.287 811.781 505.558C817.056 509.847 824.322 510.667 829.462 505.463C833.897 500.971 834.664 492.091 829.366 487.783Z" fill="black"/>
</svg>
