<?xml version="1.0" standalone="no"?>
<!DOCTYPE svg PUBLIC "-//W3C//DTD SVG 20010904//EN"
 "http://www.w3.org/TR/2001/REC-SVG-20010904/DTD/svg10.dtd">
<svg version="1.0" xmlns="http://www.w3.org/2000/svg"
 width="700.000000pt" height="700.000000pt" viewBox="0 0 700.000000 700.000000"
 preserveAspectRatio="xMidYMid meet">
<metadata>
Created by potrace 1.14, written by Peter Selinger 2001-2017
</metadata>
<g transform="translate(0.000000,700.000000) scale(0.100000,-0.100000)"
fill="#000000" stroke="none">
<path d="M3367 6994 c-1 -1 -47 -4 -102 -8 -117 -7 -186 -14 -235 -21 -19 -3
-52 -8 -72 -10 -292 -37 -722 -176 -1028 -331 -863 -438 -1489 -1178 -1778
-2104 -48 -153 -100 -394 -118 -540 -3 -25 -7 -56 -9 -70 -13 -70 -20 -216
-20 -400 0 -253 6 -337 40 -565 26 -174 105 -483 155 -610 4 -11 27 -69 50
-130 23 -60 74 -173 112 -249 180 -361 376 -635 663 -922 323 -324 669 -561
1080 -740 293 -126 663 -229 940 -260 28 -3 61 -8 75 -10 122 -22 684 -21 752
1 7 2 38 6 68 10 302 32 663 133 975 271 232 102 379 187 659 380 121 84 387
328 527 484 245 273 478 637 603 940 15 36 33 79 41 95 26 58 115 335 140 437
31 123 57 259 71 358 3 25 8 52 9 61 2 8 6 55 10 105 4 49 8 100 11 114 5 30
5 374 0 445 -38 538 -200 1069 -464 1525 -56 98 -173 279 -204 314 -5 6 -29
38 -54 71 -159 210 -376 429 -607 613 -421 334 -961 582 -1487 682 -145 27
-265 43 -420 56 -69 5 -378 12 -383 8z m388 -98 c107 -9 167 -16 192 -20 11
-3 44 -7 73 -11 62 -8 78 -11 145 -26 255 -57 371 -91 560 -164 778 -300 1410
-868 1801 -1620 177 -340 310 -768 349 -1120 3 -27 7 -66 10 -85 15 -117 21
-431 10 -569 -9 -111 -15 -173 -19 -200 -3 -14 -7 -53 -11 -86 -4 -32 -8 -62
-10 -65 -2 -3 -6 -23 -9 -45 -31 -191 -134 -529 -231 -749 -266 -611 -699
-1122 -1262 -1490 -340 -222 -733 -387 -1118 -471 -120 -26 -132 -28 -250 -45
-44 -6 -91 -13 -104 -15 -137 -23 -685 -23 -771 0 -8 2 -37 6 -65 10 -43 5
-77 10 -190 30 -186 32 -501 129 -700 215 -189 82 -270 125 -460 243 -308 190
-580 426 -809 702 -227 273 -368 503 -527 860 -79 180 -156 429 -204 665 -25
122 -29 155 -50 345 -13 114 -13 548 -1 620 2 17 8 59 11 95 4 36 15 115 26
175 24 138 23 133 49 235 12 47 24 94 26 105 10 55 104 324 139 402 8 17 15
33 15 36 0 12 100 213 158 316 209 374 495 711 841 989 530 427 1192 687 1875
738 39 3 71 6 73 7 5 5 366 -1 438 -7z"/>
<path d="M2532 5859 c-42 -16 -118 -105 -155 -181 -107 -221 -152 -466 -152
-833 0 -269 16 -415 69 -607 84 -308 219 -462 359 -409 91 35 182 180 242 386
158 545 69 1369 -173 1601 -51 49 -131 67 -190 43z"/>
<path d="M4403 5854 c-18 -9 -45 -28 -59 -43 -25 -24 -94 -124 -94 -135 0 -3
-11 -29 -24 -58 -128 -279 -167 -807 -90 -1225 129 -707 488 -775 649 -124 13
53 28 128 34 166 6 39 13 86 17 105 3 19 7 139 9 265 4 278 -9 414 -60 616
-85 340 -232 506 -382 433z"/>
<path d="M5710 3462 c-55 -7 -102 -24 -121 -43 -21 -21 -26 -78 -9 -110 14
-26 63 -49 91 -44 13 3 46 8 73 11 l49 7 -7 -99 c-3 -54 -8 -110 -11 -124 -3
-14 -7 -36 -10 -50 -2 -14 -7 -41 -10 -60 -27 -172 -129 -437 -241 -630 -38
-65 -150 -226 -187 -269 -293 -334 -626 -563 -1023 -699 -115 -40 -334 -94
-429 -107 -11 -2 -38 -6 -60 -9 -145 -22 -526 -22 -631 -1 -11 3 -42 7 -68 10
-26 3 -97 17 -158 31 -444 100 -834 310 -1138 614 -143 143 -171 177 -268 320
-156 231 -281 526 -316 750 -3 19 -8 46 -11 60 -13 60 -23 223 -15 229 3 1 31
0 64 -4 103 -13 158 35 132 115 -14 44 -57 66 -146 76 -107 12 -176 10 -285
-11 -47 -9 -168 -71 -198 -101 -38 -37 -37 -86 2 -125 38 -38 70 -37 144 2 62
32 70 32 73 -4 2 -44 15 -163 19 -187 3 -14 7 -40 10 -59 3 -19 7 -37 9 -40 2
-3 7 -24 10 -46 10 -60 65 -240 103 -335 45 -112 134 -287 183 -362 22 -32 40
-62 40 -64 0 -9 85 -119 161 -210 89 -105 163 -180 251 -256 34 -29 69 -59 76
-66 34 -31 216 -154 305 -207 203 -118 489 -234 695 -280 111 -25 286 -56 353
-62 162 -15 629 -7 659 12 3 2 28 6 56 9 28 3 57 8 65 10 8 3 30 7 49 10 102
15 328 85 483 150 558 231 1028 669 1267 1181 70 149 146 377 165 495 3 19 8
42 10 50 4 15 7 32 19 115 3 22 8 73 11 114 3 41 7 76 10 79 2 2 23 -7 47 -20
60 -35 93 -41 126 -24 52 27 67 94 32 139 -31 39 -153 95 -245 112 -71 14
-182 17 -255 7z"/>
</g>
</svg>
